grf
version=1
nRows=17
nColumns=37
inDegrees=no
endheader
time	ground_force_1_vx	ground_force_1_vy	ground_force_1_vz	ground_force_1_px	ground_force_1_py	ground_force_1_pz	ground_moment_1_mx	ground_moment_1_my	ground_moment_1_mz	ground_force_2_vx	ground_force_2_vy	ground_force_2_vz	ground_force_2_px	ground_force_2_py	ground_force_2_pz	ground_moment_2_mx	ground_moment_2_my	ground_moment_2_mz	ground_force_3_vx	ground_force_3_vy	ground_force_3_vz	ground_force_3_px	ground_force_3_py	ground_force_3_pz	ground_moment_3_mx	ground_moment_3_my	ground_moment_3_mz	ground_force_4_vx	ground_force_4_vy	ground_force_4_vz	ground_force_4_px	ground_force_4_py	ground_force_4_pz	ground_moment_4_mx	ground_moment_4_my	ground_moment_4_mz
      3.27000000	      0.00000000	     -0.00000000	      0.00000000	      0.00000000	      0.00000000	      0.00000000	      0.00000000	      0.00000000	      0.00000000	     -0.63324261	      4.40002012	   -322.52273560	   -329.73392913	  -1133.66357759	      0.00000000	      0.00000000	      0.00000000	   2937.55086001	      1.90398942	     -3.09125909	   -333.95059204	   -323.75421550	   -714.46773268	      0.00000000	      0.00000000	     -0.00000000	  -3286.68196267	      0.00000000	     -0.00000000	      0.00000000	      0.00000000	      0.00000000	      0.00000000	      0.00000000	      0.00000000	      0.00000000
      3.28000000	      0.00000000	     -0.00000000	      0.00000000	      0.00000000	      0.00000000	      0.00000000	      0.00000000	      0.00000000	      0.00000000	     -0.77009648	      4.90217209	   -324.38540649	   -330.85408602	  -1134.34734075	      0.00000000	      0.00000000	      0.00000000	   3032.72182126	      2.95100464	     -2.28191079	   -333.78894043	   -324.78355781	   -715.05437321	      0.00000000	      0.00000000	     -0.00000000	  -3166.75594472	      0.00000000	     -0.00000000	      0.00000000	      0.00000000	      0.00000000	      0.00000000	      0.00000000	      0.00000000	      0.00000000
      3.29000000	      0.00000000	     -0.00000000	      0.00000000	      0.00000000	      0.00000000	      0.00000000	      0.00000000	      0.00000000	      0.00000000	     -0.96206212	      5.30122805	   -325.90887451	   -331.19681644	  -1134.65640708	      0.00000000	      0.00000000	      0.00000000	   2953.41440787	      3.51570359	     -1.92421535	   -331.86016846	   -324.90080962	   -716.57330571	      0.00000000	      0.00000000	     -0.00000000	  -2984.69782525	      0.00000000	     -0.00000000	      0.00000000	      0.00000000	      0.00000000	      0.00000000	      0.00000000	      0.00000000	      0.00000000
      3.30000000	      0.00000000	     -0.00000000	      0.00000000	      0.00000000	      0.00000000	      0.00000000	      0.00000000	      0.00000000	      0.00000000	     -0.37987891	      4.94527006	   -326.33825684	   -332.51307959	  -1134.57681766	      0.00000000	      0.00000000	      0.00000000	   3154.01422795	      3.52864474	     -1.42299703	   -332.17257690	   -325.91390800	   -715.65231395	      0.00000000	      0.00000000	     -0.00000000	  -2900.28258033	      0.00000000	     -0.00000000	      0.00000000	      0.00000000	      0.00000000	      0.00000000	      0.00000000	      0.00000000	      0.00000000
      3.31000000	      0.00000000	     -0.00000000	      0.00000000	      0.00000000	      0.00000000	      0.00000000	      0.00000000	      0.00000000	      0.00000000	      0.26578474	      4.69071817	   -326.02648926	   -333.31090168	  -1133.27020802	      0.00000000	      0.00000000	      0.00000000	   2977.46286088	      4.62536478	     -0.09857651	   -330.37850952	   -326.55052121	   -716.64065860	      0.00000000	     -0.00000000	     -0.00000000	  -2986.28572218	      0.00000000	     -0.00000000	      0.00000000	      0.00000000	      0.00000000	      0.00000000	      0.00000000	      0.00000000	      0.00000000
      3.32000000	      0.00000000	     -0.00000000	      0.00000000	      0.00000000	      0.00000000	      0.00000000	      0.00000000	      0.00000000	      0.00000000	      1.84005952	      4.43405247	   -328.67846680	   -333.98497623	  -1134.89444590	      0.00000000	      0.00000000	      0.00000000	   3062.68541758	      6.32089477	      1.29182943	   -329.51086426	   -326.93187574	   -717.66086719	      0.00000000	      0.00000000	     -0.00000000	  -2805.22067090	      0.00000000	     -0.00000000	      0.00000000	      0.00000000	      0.00000000	      0.00000000	      0.00000000	      0.00000000	      0.00000000
      3.33000000	      0.00000000	     -0.00000000	      0.00000000	      0.00000000	      0.00000000	      0.00000000	      0.00000000	      0.00000000	      0.00000000	      3.40090942	      3.77694893	   -327.48571777	   -335.72131866	  -1132.73287167	      0.00000000	      0.00000000	      0.00000000	   3068.97140019	      7.32971439	      2.04236618	   -328.90081787	   -327.36549631	   -717.42669584	      0.00000000	      0.00000000	     -0.00000000	  -2669.80438307	      0.00000000	     -0.00000000	      0.00000000	      0.00000000	      0.00000000	      0.00000000	      0.00000000	      0.00000000	      0.00000000
      3.34000000	      0.00000000	     -0.00000000	      0.00000000	      0.00000000	      0.00000000	      0.00000000	      0.00000000	      0.00000000	      0.00000000	      4.46052551	      2.75131178	   -328.73004150	   -337.18395897	  -1132.35751989	      0.00000000	      0.00000000	      0.00000000	   3074.79170958	      7.36299523	      1.92131904	   -326.58834839	   -328.93480275	   -717.28922478	      0.00000000	      0.00000000	     -0.00000000	  -2533.54712028	      0.00000000	     -0.00000000	      0.00000000	      0.00000000	      0.00000000	      0.00000000	      0.00000000	      0.00000000	      0.00000000
      3.35000000	      0.00000000	     -0.00000000	      0.00000000	      0.00000000	      0.00000000	      0.00000000	      0.00000000	      0.00000000	      0.00000000	      4.78357983	      1.81636524	   -330.61398315	   -337.62217162	  -1134.55616211	      0.00000000	      0.00000000	      0.00000000	   2946.19183975	      7.61953031	      2.43958917	   -325.32440186	   -328.40448701	   -717.32124642	      0.00000000	      0.00000000	     -0.00000000	  -2407.28706140	      0.00000000	     -0.00000000	      0.00000000	      0.00000000	      0.00000000	      0.00000000	      0.00000000	      0.00000000	      0.00000000
      3.36000000	      0.00000000	     -0.00000000	      0.00000000	      0.00000000	      0.00000000	      0.00000000	      0.00000000	      0.00000000	      0.00000000	      5.35263062	      1.65581524	   -327.26351929	   -338.31639598	  -1132.76305033	      0.00000000	      0.00000000	      0.00000000	   3080.79270541	      8.21640119	      2.01018464	   -323.13299561	   -328.29263845	   -716.52543948	      0.00000000	      0.00000000	     -0.00000000	  -2493.89045185	      0.00000000	     -0.00000000	      0.00000000	      0.00000000	      0.00000000	      0.00000000	      0.00000000	      0.00000000	      0.00000000
      3.37000000	      0.00000000	     -0.00000000	      0.00000000	      0.00000000	      0.00000000	      0.00000000	      0.00000000	      0.00000000	      0.00000000	      5.28448391	      1.21873331	   -324.18728638	   -338.36241563	  -1132.35952915	      0.00000000	      0.00000000	      0.00000000	   3118.95443214	      8.28395185	      2.14064085	   -320.17205811	   -328.65763461	   -717.02739471	      0.00000000	      0.00000000	     -0.00000000	  -2205.14719119	      0.00000000	     -0.00000000	      0.00000000	      0.00000000	      0.00000000	      0.00000000	      0.00000000	      0.00000000	      0.00000000
      3.38000000	      0.00000000	     -0.00000000	      0.00000000	      0.00000000	      0.00000000	      0.00000000	      0.00000000	      0.00000000	      0.00000000	      5.59948063	      1.24048352	   -322.18240356	   -339.09709032	  -1132.70648879	      0.00000000	      0.00000000	      0.00000000	   2973.23815311	      9.47879707	      2.62325198	   -318.88644409	   -328.24479003	   -715.59924756	      0.00000000	      0.00000000	     -0.00000000	  -2239.77795312	      0.00000000	     -0.00000000	      0.00000000	      0.00000000	      0.00000000	      0.00000000	      0.00000000	      0.00000000	      0.00000000
      3.39000000	      0.00000000	     -0.00000000	      0.00000000	      0.00000000	      0.00000000	      0.00000000	      0.00000000	      0.00000000	      0.00000000	      5.95659637	      1.52187467	   -316.77398682	   -341.06990005	  -1132.13967466	      0.00000000	      0.00000000	      0.00000000	   3028.12106104	     10.33824266	      2.88063934	   -315.65982056	   -328.34231803	   -716.76386077	      0.00000000	      0.00000000	     -0.00000000	  -2179.83359112	      0.00000000	     -0.00000000	      0.00000000	      0.00000000	      0.00000000	      0.00000000	      0.00000000	      0.00000000	      0.00000000
      3.40000000	      0.00000000	     -0.00000000	      0.00000000	      0.00000000	      0.00000000	      0.00000000	      0.00000000	      0.00000000	      0.00000000	      6.10080481	      1.46651161	   -313.35067749	   -339.89781021	  -1132.44215118	      0.00000000	      0.00000000	      0.00000000	   2941.33468872	     10.95179571	      3.05106664	   -311.65756226	   -327.75251751	   -716.72872129	      0.00000000	      0.00000000	     -0.00000000	  -2115.98277013	      0.00000000	     -0.00000000	      0.00000000	      0.00000000	      0.00000000	      0.00000000	      0.00000000	      0.00000000	      0.00000000
      3.41000000	      0.00000000	     -0.00000000	      0.00000000	      0.00000000	      0.00000000	      0.00000000	      0.00000000	      0.00000000	      0.00000000	      6.86920929	      1.07479155	   -308.60037231	   -341.29046202	  -1132.68719125	      0.00000000	      0.00000000	      0.00000000	   2979.41003316	     11.37487043	      2.98313401	   -307.01858521	   -328.39222286	   -715.89860045	      0.00000000	      0.00000000	     -0.00000000	  -2105.27905609	      0.00000000	     -0.00000000	      0.00000000	      0.00000000	      0.00000000	      0.00000000	      0.00000000	      0.00000000	      0.00000000
      3.42000000	      0.00000000	     -0.00000000	      0.00000000	      0.00000000	      0.00000000	      0.00000000	      0.00000000	      0.00000000	      0.00000000	      7.57229424	      0.76290321	   -302.04666138	   -341.57015317	  -1132.15966624	      0.00000000	      0.00000000	      0.00000000	   2933.52136118	     11.99556556	      3.42502136	   -302.83209229	   -327.94898701	   -716.99025777	      0.00000000	      0.00000000	     -0.00000000	  -1965.34252718	      0.00000000	     -0.00000000	      0.00000000	      0.00000000	      0.00000000	      0.00000000	      0.00000000	      0.00000000	      0.00000000
      3.43000000	      0.00000000	     -0.00000000	      0.00000000	      0.00000000	      0.00000000	      0.00000000	      0.00000000	      0.00000000	      0.00000000	      8.31596565	      0.49217999	   -297.00903320	   -341.82358458	  -1131.97165013	      0.00000000	      0.00000000	      0.00000000	   2764.59155079	     12.59292046	      3.49434368	   -300.05776978	   -328.68070296	   -717.56725045	      0.00000000	     -0.00000000	     -0.00000000	  -1830.38716525	      0.00000000	     -0.00000000	      0.00000000	      0.00000000	      0.00000000	      0.00000000	      0.00000000	      0.00000000	      0.00000000
